<svg xmlns="http://www.w3.org/2000/svg" xmlns:xlink="http://www.w3.org/1999/xlink" width="500" zoomAndPan="magnify" viewBox="0 0 375 374.999991" height="500" preserveAspectRatio="xMidYMid meet" version="1.0"><defs><g/><clipPath id="146e0604a2"><path d="M 66.394531 156.007812 L 108 156.007812 L 108 219 L 66.394531 219 Z M 66.394531 156.007812 " clip-rule="nonzero"/></clipPath><clipPath id="6329b940e8"><path d="M 66.394531 156.007812 L 108 156.007812 L 108 204 L 66.394531 204 Z M 66.394531 156.007812 " clip-rule="nonzero"/></clipPath><clipPath id="bcbbfb2e75"><path d="M 121 156.007812 L 133.894531 156.007812 L 133.894531 169 L 121 169 Z M 121 156.007812 " clip-rule="nonzero"/></clipPath><clipPath id="146389fd15"><path d="M 92 156.007812 L 133.894531 156.007812 L 133.894531 219 L 92 219 Z M 92 156.007812 " clip-rule="nonzero"/></clipPath><clipPath id="e21ff4b224"><path d="M 92 156.007812 L 133.894531 156.007812 L 133.894531 204 L 92 204 Z M 92 156.007812 " clip-rule="nonzero"/></clipPath></defs><g clip-path="url(#146e0604a2)"><path fill="#72ffff" d="M 82.515625 159.164062 L 104.304688 180.949219 C 104.742188 181.386719 105.132812 181.867188 105.476562 182.382812 C 105.824219 182.898438 106.113281 183.441406 106.351562 184.015625 C 106.589844 184.585938 106.765625 185.175781 106.886719 185.785156 C 107.007812 186.394531 107.070312 187.007812 107.070312 187.628906 C 107.070312 188.25 107.007812 188.863281 106.886719 189.472656 C 106.765625 190.078125 106.589844 190.671875 106.351562 191.242188 C 106.113281 191.816406 105.824219 192.359375 105.476562 192.875 C 105.132812 193.390625 104.742188 193.867188 104.304688 194.308594 L 82.515625 216.09375 C 76.566406 222.042969 66.390625 217.828125 66.394531 209.410156 L 66.394531 165.835938 C 66.390625 157.429688 76.566406 153.210938 82.515625 159.164062 Z M 82.515625 159.164062 " fill-opacity="1" fill-rule="nonzero"/></g><g clip-path="url(#6329b940e8)"><path fill="#00d7ff" d="M 82.515625 159.164062 C 76.601562 153.246094 66.539062 157.382812 66.398438 165.695312 C 66.398438 165.695312 100.683594 198.132812 95.230469 203.417969 L 104.324219 194.328125 C 104.761719 193.886719 105.152344 193.410156 105.496094 192.894531 C 105.84375 192.378906 106.132812 191.835938 106.371094 191.261719 C 106.605469 190.691406 106.785156 190.097656 106.90625 189.492188 C 107.027344 188.882812 107.089844 188.269531 107.089844 187.648438 C 107.089844 187.027344 107.027344 186.414062 106.90625 185.804688 C 106.785156 185.195312 106.605469 184.605469 106.371094 184.035156 C 106.132812 183.460938 105.84375 182.917969 105.496094 182.402344 C 105.152344 181.886719 104.761719 181.40625 104.324219 180.96875 Z M 82.515625 159.164062 " fill-opacity="1" fill-rule="nonzero"/></g><g clip-path="url(#bcbbfb2e75)"><path fill="#590696" d="M 134.175781 162.25 C 134.175781 162.65625 134.136719 163.058594 134.058594 163.457031 C 133.976562 163.855469 133.859375 164.238281 133.707031 164.613281 C 133.550781 164.988281 133.359375 165.34375 133.136719 165.679688 C 132.910156 166.019531 132.652344 166.332031 132.367188 166.617188 C 132.082031 166.902344 131.769531 167.160156 131.433594 167.382812 C 131.09375 167.609375 130.738281 167.800781 130.363281 167.953125 C 129.992188 168.109375 129.605469 168.226562 129.207031 168.304688 C 128.808594 168.386719 128.40625 168.425781 128.003906 168.425781 C 127.597656 168.425781 127.195312 168.386719 126.796875 168.304688 C 126.402344 168.226562 126.015625 168.109375 125.640625 167.953125 C 125.265625 167.800781 124.910156 167.609375 124.574219 167.382812 C 124.234375 167.160156 123.925781 166.902344 123.636719 166.617188 C 123.351562 166.332031 123.09375 166.019531 122.871094 165.679688 C 122.644531 165.34375 122.453125 164.988281 122.300781 164.613281 C 122.144531 164.238281 122.027344 163.855469 121.949219 163.457031 C 121.871094 163.058594 121.828125 162.65625 121.828125 162.25 C 121.828125 161.847656 121.871094 161.445312 121.949219 161.046875 C 122.027344 160.648438 122.144531 160.265625 122.300781 159.890625 C 122.453125 159.515625 122.644531 159.160156 122.871094 158.824219 C 123.09375 158.484375 123.351562 158.171875 123.636719 157.886719 C 123.925781 157.601562 124.234375 157.34375 124.574219 157.121094 C 124.910156 156.894531 125.265625 156.703125 125.640625 156.546875 C 126.015625 156.394531 126.402344 156.277344 126.796875 156.199219 C 127.195312 156.117188 127.597656 156.078125 128.003906 156.078125 C 128.40625 156.078125 128.808594 156.117188 129.207031 156.199219 C 129.605469 156.277344 129.992188 156.394531 130.363281 156.546875 C 130.738281 156.703125 131.09375 156.894531 131.433594 157.121094 C 131.769531 157.34375 132.082031 157.601562 132.367188 157.886719 C 132.652344 158.171875 132.910156 158.484375 133.136719 158.824219 C 133.359375 159.160156 133.550781 159.515625 133.707031 159.890625 C 133.859375 160.265625 133.976562 160.648438 134.058594 161.046875 C 134.136719 161.445312 134.175781 161.847656 134.175781 162.25 Z M 134.175781 162.25 " fill-opacity="1" fill-rule="nonzero"/><path fill="#590696" d="M 134.175781 162.25 C 134.175781 162.65625 134.136719 163.058594 134.058594 163.457031 C 133.976562 163.855469 133.859375 164.238281 133.707031 164.613281 C 133.550781 164.988281 133.359375 165.34375 133.136719 165.679688 C 132.910156 166.019531 132.652344 166.332031 132.367188 166.617188 C 132.082031 166.902344 131.769531 167.160156 131.433594 167.382812 C 131.09375 167.609375 130.738281 167.800781 130.363281 167.953125 C 129.992188 168.109375 129.605469 168.226562 129.207031 168.304688 C 128.808594 168.386719 128.40625 168.425781 128.003906 168.425781 C 127.597656 168.425781 127.195312 168.386719 126.796875 168.304688 C 126.402344 168.226562 126.015625 168.109375 125.640625 167.953125 C 125.265625 167.800781 124.910156 167.609375 124.574219 167.382812 C 124.234375 167.160156 123.925781 166.902344 123.636719 166.617188 C 123.351562 166.332031 123.09375 166.019531 122.871094 165.679688 C 122.644531 165.34375 122.453125 164.988281 122.300781 164.613281 C 122.144531 164.238281 122.027344 163.855469 121.949219 163.457031 C 121.871094 163.058594 121.828125 162.65625 121.828125 162.25 C 121.828125 161.847656 121.871094 161.445312 121.949219 161.046875 C 122.027344 160.648438 122.144531 160.265625 122.300781 159.890625 C 122.453125 159.515625 122.644531 159.160156 122.871094 158.824219 C 123.09375 158.484375 123.351562 158.171875 123.636719 157.886719 C 123.925781 157.601562 124.234375 157.34375 124.574219 157.121094 C 124.910156 156.894531 125.265625 156.703125 125.640625 156.546875 C 126.015625 156.394531 126.402344 156.277344 126.796875 156.199219 C 127.195312 156.117188 127.597656 156.078125 128.003906 156.078125 C 128.40625 156.078125 128.808594 156.117188 129.207031 156.199219 C 129.605469 156.277344 129.992188 156.394531 130.363281 156.546875 C 130.738281 156.703125 131.09375 156.894531 131.433594 157.121094 C 131.769531 157.34375 132.082031 157.601562 132.367188 157.886719 C 132.652344 158.171875 132.910156 158.484375 133.136719 158.824219 C 133.359375 159.160156 133.550781 159.515625 133.707031 159.890625 C 133.859375 160.265625 133.976562 160.648438 134.058594 161.046875 C 134.136719 161.445312 134.175781 161.847656 134.175781 162.25 Z M 134.175781 162.25 " fill-opacity="1" fill-rule="nonzero"/></g><g clip-path="url(#146389fd15)"><path fill="#0096ff" d="M 131.40625 181.003906 L 109.621094 159.214844 C 103.769531 153.363281 88.179688 160.152344 93.515625 165.484375 L 109.183594 181.15625 C 109.621094 181.597656 110.015625 182.074219 110.359375 182.589844 C 110.703125 183.105469 110.996094 183.648438 111.230469 184.21875 C 111.46875 184.792969 111.648438 185.382812 111.769531 185.992188 C 111.890625 186.601562 111.953125 187.214844 111.953125 187.835938 C 111.953125 188.453125 111.890625 189.070312 111.769531 189.675781 C 111.648438 190.285156 111.46875 190.875 111.230469 191.449219 C 110.996094 192.019531 110.703125 192.566406 110.359375 193.082031 C 110.015625 193.597656 109.621094 194.074219 109.183594 194.511719 L 93.527344 210.171875 C 88.753906 214.941406 103.828125 221.976562 109.621094 216.1875 L 131.40625 194.398438 C 131.847656 193.960938 132.242188 193.484375 132.589844 192.964844 C 132.9375 192.449219 133.230469 191.902344 133.46875 191.328125 C 133.707031 190.753906 133.886719 190.160156 134.007812 189.550781 C 134.132812 188.941406 134.191406 188.324219 134.191406 187.703125 C 134.191406 187.078125 134.132812 186.460938 134.007812 185.851562 C 133.886719 185.242188 133.707031 184.648438 133.46875 184.074219 C 133.230469 183.5 132.9375 182.953125 132.589844 182.4375 C 132.242188 181.917969 131.847656 181.441406 131.40625 181.003906 Z M 131.40625 181.003906 " fill-opacity="1" fill-rule="nonzero"/></g><g clip-path="url(#e21ff4b224)"><path fill="#5800ff" d="M 131.40625 181.003906 L 109.621094 159.214844 C 103.769531 153.363281 88.179688 160.152344 93.515625 165.484375 L 109.183594 181.15625 C 109.941406 181.914062 110.550781 182.773438 111.011719 183.734375 C 111.476562 184.699219 111.765625 185.710938 111.886719 186.773438 C 117.285156 193.113281 121.773438 199.265625 122.707031 203.101562 L 131.421875 194.386719 C 131.859375 193.945312 132.253906 193.46875 132.597656 192.949219 C 132.945312 192.433594 133.234375 191.886719 133.472656 191.3125 C 133.710938 190.738281 133.890625 190.148438 134.011719 189.539062 C 134.132812 188.929688 134.191406 188.3125 134.191406 187.691406 C 134.191406 187.070312 134.128906 186.453125 134.007812 185.84375 C 133.886719 185.234375 133.703125 184.644531 133.464844 184.070312 C 133.226562 183.496094 132.933594 182.949219 132.585938 182.433594 C 132.242188 181.917969 131.847656 181.441406 131.40625 181.003906 Z M 131.40625 181.003906 " fill-opacity="1" fill-rule="nonzero"/></g><g fill="#231f20" fill-opacity="1"><g transform="translate(147.267271, 203.386029)"><g><path d="M 22.230469 0 L 22.230469 -4.835938 L 8.914062 -4.835938 L 8.914062 -29.496094 L 3.515625 -29.496094 L 3.515625 0 Z M 22.230469 0 "/></g></g></g><g fill="#231f20" fill-opacity="1"><g transform="translate(170.36496, 203.386029)"><g><path d="M 24.292969 -11.539062 C 24.292969 -17.675781 19.78125 -22.96875 13.058594 -22.96875 C 6.355469 -22.96875 1.496094 -17.65625 1.496094 -11.148438 C 1.496094 -4.640625 6.355469 0.671875 13.058594 0.671875 C 18.609375 0.671875 22.578125 -2.992188 23.707031 -7.003906 L 17.980469 -7.003906 C 17.222656 -5.117188 15.59375 -4.011719 12.949219 -4.011719 C 9.867188 -4.011719 7.308594 -6.117188 6.765625 -9.761719 L 24.183594 -9.761719 C 24.269531 -10.585938 24.292969 -10.976562 24.292969 -11.539062 Z M 6.984375 -13.816406 C 7.875 -16.960938 10.390625 -18.394531 13.035156 -18.394531 C 16.117188 -18.394531 18.71875 -16.3125 18.933594 -13.816406 Z M 6.984375 -13.816406 "/></g></g></g><g fill="#231f20" fill-opacity="1"><g transform="translate(195.848327, 203.386029)"><g><path d="M 12.449219 0 L 17.15625 -14.445312 L 17.179688 -14.445312 L 21.820312 0 L 26.679688 0 L 34.203125 -22.296875 L 28.671875 -22.296875 L 24.3125 -8.394531 L 23.792969 -6.832031 L 23.730469 -6.832031 L 23.273438 -8.308594 L 19.195312 -22.296875 L 15.3125 -22.296875 L 11.082031 -8.15625 L 10.671875 -6.832031 L 10.605469 -6.832031 L 10.214844 -8.15625 L 5.855469 -22.296875 L 0.21875 -22.296875 L 7.722656 0 Z M 12.449219 0 "/></g></g></g><g fill="#231f20" fill-opacity="1"><g transform="translate(230.24545, 203.386029)"><g><path d="M 13.210938 0.671875 C 20.085938 0.671875 25.007812 -4.578125 25.007812 -11.148438 C 25.007812 -17.675781 20.085938 -22.96875 13.230469 -22.96875 C 6.398438 -22.96875 1.496094 -17.65625 1.496094 -11.148438 C 1.496094 -4.597656 6.421875 0.671875 13.210938 0.671875 Z M 13.253906 -4.207031 C 9.5 -4.207031 6.703125 -7.113281 6.703125 -11.148438 C 6.703125 -15.160156 9.5 -18.109375 13.253906 -18.109375 C 17.003906 -18.109375 19.800781 -15.160156 19.800781 -11.148438 C 19.800781 -7.113281 17.003906 -4.207031 13.253906 -4.207031 Z M 13.253906 -4.207031 "/></g></g></g><g fill="#231f20" fill-opacity="1"><g transform="translate(256.748151, 203.386029)"><g><path d="M 5.660156 -25.765625 C 7.785156 -25.765625 8.980469 -27.089844 8.980469 -28.78125 C 8.980469 -30.410156 7.785156 -31.777344 5.683594 -31.777344 C 3.621094 -31.777344 2.429688 -30.410156 2.429688 -28.78125 C 2.429688 -27.113281 3.644531 -25.765625 5.660156 -25.765625 Z M 8.328125 0 L 8.328125 -22.296875 L 3.078125 -22.296875 L 3.078125 0 Z M 8.328125 0 "/></g></g></g><g fill="#231f20" fill-opacity="1"><g transform="translate(268.134336, 203.386029)"><g><path d="M 8.328125 0 L 8.328125 -11.386719 C 8.328125 -15.746094 11.148438 -18.132812 14.226562 -18.132812 C 17.394531 -18.132812 19.390625 -16.332031 19.390625 -11.90625 L 19.390625 0 L 24.640625 0 L 24.640625 -12.015625 C 24.640625 -19.023438 21.667969 -22.96875 15.683594 -22.96875 C 12.253906 -22.96875 9.347656 -21.257812 8.070312 -18.828125 L 8.070312 -22.296875 L 3.078125 -22.296875 L 3.078125 0 Z M 8.328125 0 "/></g></g></g><g fill="#231f20" fill-opacity="1"><g transform="translate(295.678061, 203.386029)"><g><path d="M 16.789062 0 L 16.789062 -4.359375 L 13.339844 -4.359375 C 11.667969 -4.359375 10.105469 -5.117188 10.105469 -8.242188 L 10.105469 -17.785156 L 16.789062 -17.785156 L 16.789062 -22.296875 L 10.105469 -22.296875 L 10.105469 -28.867188 L 4.859375 -28.824219 L 4.859375 -22.296875 L 0.238281 -22.296875 L 0.238281 -17.785156 L 4.859375 -17.785156 L 4.859375 -8.480469 C 4.859375 -1.128906 8.894531 0 12.253906 0 Z M 16.789062 0 "/></g></g></g></svg>